<svg width="59" height="17" viewBox="0 0 59 17" fill="none" xmlns="http://www.w3.org/2000/svg">
    <path
        d="M0.383618 13.1331L0.383618 6.6612L8.57454 6.6612L8.57454 6.28264L0.383618 6.28264L0.383618 0.378446L9.0924 0.378446L9.0924 -1.70381e-08L0 0L1.12213e-09 13.5115L9.16908 13.5115L9.16908 13.1331L0.383618 13.1331ZM16.5544 3.78469L13.1592 8.19395L9.84053 3.7848L9.34178 3.7848L12.9289 8.4779L8.99638 13.5114L9.45679 13.5114L13.159 8.76151L16.8804 13.5114L17.3599 13.5114L13.4083 8.47767L17.0146 3.78458L16.5544 3.78469ZM18.511 16.8421L18.511 10.7866L18.5493 10.7866C18.7796 11.6697 19.2335 12.3793 19.9113 12.9156C20.5891 13.4517 21.4522 13.7198 22.5009 13.7198C23.1786 13.7198 23.7797 13.5842 24.304 13.313C24.8284 13.0417 25.2663 12.6727 25.618 12.2059C25.9697 11.7391 26.2383 11.1966 26.4237 10.5784C26.6091 9.96034 26.7019 9.31055 26.7019 8.62941C26.7019 7.89762 26.6059 7.22262 26.4141 6.60452C26.2223 5.98631 25.9441 5.4501 25.5797 4.99601C25.2152 4.54181 24.774 4.18846 24.256 3.93632C23.7382 3.68394 23.1531 3.55776 22.5009 3.55776C22.0021 3.55776 21.5386 3.63034 21.1102 3.77538C20.6818 3.92053 20.3014 4.12543 19.9689 4.39041C19.6344 4.65742 19.3433 4.9733 19.1056 5.3271C18.8627 5.68669 18.6772 6.08092 18.5493 6.50991L18.511 6.50991L18.511 3.78469L18.1274 3.78469L18.1274 16.8421L18.511 16.8421ZM22.5009 13.3601C21.2989 13.3601 20.3333 12.9533 19.6044 12.1396C18.8755 11.3259 18.511 10.1557 18.511 8.62919C18.511 7.99837 18.6005 7.39912 18.7796 6.83145C18.9586 6.26378 19.2175 5.7654 19.5564 5.33652C19.8953 4.90753 20.3142 4.56691 20.8128 4.31465C21.3115 4.06228 21.8743 3.93609 22.5009 3.93609C23.1403 3.93609 23.6998 4.06228 24.1794 4.31465C24.6589 4.56691 25.0554 4.91071 25.3687 5.34595C25.6819 5.78119 25.9185 6.27957 26.0785 6.84088C26.2383 7.4023 26.3182 7.99837 26.3182 8.62919C26.3182 9.19697 26.2447 9.76157 26.0976 10.3229C25.9505 10.8843 25.7235 11.3889 25.4166 11.8369C25.1097 12.2846 24.7166 12.6505 24.2369 12.9344C23.7573 13.2182 23.1786 13.3601 22.5009 13.3601ZM28.8119 13.5115L28.8119 8.00473C28.8119 7.47488 28.8886 6.95753 29.0422 6.45301C29.1955 5.94837 29.4321 5.5036 29.7518 5.11891C30.0716 4.7341 30.4775 4.4313 30.9699 4.2105C31.4622 3.9897 32.0473 3.89827 32.7251 3.93609L32.7251 3.55764C32.1368 3.54515 31.6222 3.60807 31.181 3.74687C30.7397 3.88566 30.3593 4.07488 30.0396 4.31465C29.7198 4.5543 29.4641 4.83496 29.2723 5.15673C29.0807 5.47799 28.9384 5.82554 28.8502 6.18803L28.8119 6.18803L28.8119 3.78469L28.4283 3.78469L28.4283 13.5116L28.8119 13.5115ZM33.2046 8.7238L41.453 8.7238C41.4787 8.05516 41.4116 7.41184 41.2516 6.79363C41.0918 6.17542 40.836 5.6266 40.4844 5.1473C40.1327 4.66788 39.6787 4.28308 39.1224 3.99288C38.5661 3.70268 37.9043 3.55764 37.1371 3.55764C36.5871 3.55764 36.05 3.67122 35.5257 3.89838C35.0014 4.12543 34.541 4.45651 34.1446 4.89175C33.7482 5.32698 33.4285 5.86001 33.1855 6.49094C32.9426 7.12165 32.821 7.84072 32.821 8.64815C32.821 9.36722 32.9041 10.039 33.0704 10.6635C33.2366 11.288 33.4924 11.8305 33.8376 12.291C34.183 12.7514 34.6274 13.1078 35.1709 13.3601C35.7143 13.6125 36.3697 13.7323 37.1371 13.7197C38.2624 13.7197 39.2087 13.4074 39.976 12.783C40.7433 12.1584 41.1973 11.2785 41.338 10.1431L40.9544 10.1431C40.7881 11.2155 40.3628 12.0198 39.6787 12.5558C38.9945 13.0921 38.1346 13.3601 37.0986 13.3601C36.3953 13.3601 35.8006 13.2403 35.3147 13.0006C34.8288 12.761 34.4323 12.4328 34.1253 12.0166C33.8185 11.6002 33.5915 11.1113 33.4445 10.5499C33.2973 9.98862 33.2174 9.37983 33.2046 8.7238ZM41.0694 8.34535L33.2048 8.34535C33.243 7.6641 33.3709 7.05225 33.5883 6.5098C33.8057 5.96723 34.0902 5.5036 34.442 5.11891C34.7936 4.7341 35.2029 4.44084 35.6696 4.23889C36.1363 4.03706 36.6383 3.93609 37.1754 3.93609C37.8149 3.93609 38.3774 4.05285 38.8635 4.28626C39.3493 4.51966 39.7554 4.83825 40.0816 5.24191C40.4076 5.64557 40.6538 6.11556 40.82 6.65166C40.9863 7.18787 41.0694 7.75247 41.0694 8.34535ZM49.4138 6.6612L49.7974 6.6612C49.7974 5.57618 49.4777 4.78771 48.8384 4.29568C48.1988 3.80366 47.3292 3.55764 46.2295 3.55764C45.6156 3.55764 45.0977 3.6334 44.6757 3.7848C44.2537 3.93609 43.9084 4.13167 43.6398 4.37133C43.3713 4.61098 43.1795 4.87596 43.0644 5.16615C42.9493 5.45635 42.8917 5.73394 42.8917 5.9988C42.8917 6.52865 42.9876 6.95128 43.1795 7.26669C43.3713 7.5821 43.6718 7.82811 44.081 8.00473C44.3624 8.1308 44.682 8.24438 45.0402 8.34547C45.3982 8.44632 45.8138 8.55354 46.287 8.66701C46.709 8.76809 47.1246 8.86895 47.5339 8.96981C47.9431 9.07078 48.3044 9.2064 48.6176 9.37665C48.931 9.54702 49.1867 9.76464 49.385 10.0296C49.5831 10.2945 49.6823 10.6415 49.6823 11.0703C49.6823 11.4867 49.5833 11.84 49.385 12.13C49.1884 12.4187 48.9297 12.6611 48.6273 12.8398C48.3204 13.0227 47.9782 13.1551 47.601 13.2371C47.2237 13.3191 46.8561 13.3601 46.4981 13.3601C45.3343 13.3601 44.4423 13.1047 43.8221 12.5938C43.2019 12.0828 42.8918 11.2785 42.8918 10.1809L42.5081 10.1809C42.5081 11.4047 42.8438 12.3004 43.5151 12.8682C44.1866 13.4359 45.1809 13.7197 46.4981 13.7197C46.92 13.7197 47.3452 13.6723 47.7737 13.5777C48.202 13.4831 48.5858 13.3286 48.9246 13.1141C49.2605 12.9026 49.5427 12.6177 49.7494 12.2816C49.9604 11.9408 50.066 11.5246 50.066 11.0325C50.066 10.5657 49.9732 10.1873 49.7878 9.89707C49.6024 9.60699 49.3594 9.36723 49.0588 9.178C48.7583 8.98878 48.4195 8.84056 48.0422 8.73334C47.6628 8.62549 47.2823 8.52137 46.9008 8.421C46.4313 8.29947 45.9613 8.17965 45.4909 8.06152C45.0882 7.96055 44.7141 7.84072 44.3688 7.70193C44.0363 7.56313 43.771 7.36448 43.5727 7.10586C43.3744 6.84724 43.2754 6.47822 43.2754 5.9988C43.2754 5.91055 43.301 5.75279 43.3521 5.52575C43.4032 5.29859 43.5248 5.06836 43.7166 4.83496C43.9084 4.60167 44.2025 4.39347 44.599 4.2105C44.9954 4.02764 45.5389 3.93609 46.2295 3.93609C46.7027 3.93609 47.1342 3.98663 47.5242 4.08749C47.9143 4.18846 48.25 4.34929 48.5313 4.57009C48.8127 4.79089 49.0301 5.07154 49.1835 5.41217C49.337 5.7529 49.4138 6.16917 49.4138 6.6612ZM58.2951 6.6612L58.6788 6.6612C58.6788 5.57618 58.3592 4.78771 57.7197 4.29568C57.0803 3.80366 56.2107 3.55764 55.1108 3.55764C54.4971 3.55764 53.9791 3.6334 53.5571 3.7848C53.1351 3.93609 52.7898 4.13167 52.5213 4.37133C52.2527 4.61098 52.0609 4.87596 51.9458 5.16615C51.8306 5.45635 51.7732 5.73394 51.7732 5.9988C51.7732 6.52865 51.8691 6.95128 52.061 7.26669C52.2527 7.5821 52.5533 7.82811 52.9625 8.00473C53.2439 8.1308 53.5635 8.24438 53.9215 8.34547C54.2796 8.44632 54.6952 8.55354 55.1684 8.66701C55.5905 8.76809 56.0061 8.86895 56.4153 8.96981C56.8246 9.07078 57.1857 9.2064 57.4991 9.37665C57.8124 9.54702 58.0682 9.76464 58.2664 10.0296C58.4646 10.2945 58.5638 10.6415 58.5638 11.0703C58.5638 11.4867 58.4646 11.84 58.2664 12.13C58.0698 12.4187 57.8112 12.6611 57.5088 12.8398C57.2017 13.0227 56.8597 13.1551 56.4824 13.2371C56.1052 13.3191 55.7375 13.3601 55.3794 13.3601C54.2157 13.3601 53.3238 13.1047 52.7036 12.5938C52.0832 12.0828 51.7732 11.2785 51.7732 10.1809L51.3896 10.1809C51.3896 11.4047 51.7252 12.3004 52.3966 12.8682C53.0679 13.4359 54.0622 13.7197 55.3794 13.7197C55.8015 13.7197 56.2267 13.6723 56.6551 13.5777C57.0834 13.4831 57.4671 13.3286 57.8061 13.1141C58.142 12.9026 58.4242 12.6177 58.6309 12.2816C58.8419 11.9408 58.9474 11.5246 58.9474 11.0325C58.9474 10.5657 58.8547 10.1873 58.6692 9.89707C58.4839 9.60699 58.2409 9.36723 57.9403 9.178C57.6398 8.98878 57.3009 8.84056 56.9237 8.73334C56.5443 8.62549 56.1638 8.52137 55.7823 8.421C55.3128 8.29947 54.8428 8.17965 54.3724 8.06152C53.9695 7.96055 53.5955 7.84072 53.2502 7.70193C52.9177 7.56313 52.6523 7.36448 52.4542 7.10586C52.2559 6.84724 52.1568 6.47822 52.1568 5.9988C52.1568 5.91055 52.1824 5.75279 52.2336 5.52575C52.2847 5.29859 52.4063 5.06836 52.598 4.83496C52.7898 4.60167 53.0839 4.39347 53.4803 4.2105C53.8769 4.02764 54.4203 3.93609 55.111 3.93609C55.5841 3.93609 56.0157 3.98663 56.4057 4.08749C56.7958 4.18846 57.1314 4.34929 57.4128 4.57009C57.6942 4.79089 57.9115 5.07154 58.065 5.41217C58.2185 5.7529 58.2951 6.16917 58.2951 6.6612Z"
        fill="#AFAFAF" />
</svg>