<svg width="41" height="40" viewBox="0 0 41 40" fill="none" xmlns="http://www.w3.org/2000/svg">
    <g clip-path="url(#clip0_647_611)">
        <path fill-rule="evenodd" clip-rule="evenodd"
            d="M36.6063 -0.000976562H3.78673C1.70394 -0.000976562 -0.000976562 1.67553 -0.000976562 3.72374V35.9976C-0.000976562 38.0457 1.70394 39.7222 3.78673 39.7222H36.6063C38.6891 39.7222 40.394 38.0457 40.394 35.9976V3.72368C40.394 1.67553 38.6891 -0.000976562 36.6063 -0.000976562ZM22.9622 10.7861H27.5788V5.34159H22.9622C19.4071 5.34159 16.5065 8.19318 16.5065 11.6936V14.4147H12.815V19.8606H16.5057V34.3796H22.0431V19.8606H26.6552L27.5788 14.4147H22.043V11.6936C22.043 11.2009 22.4657 10.7853 22.9622 10.7853V10.7861Z"
            fill="#AFAFAF" />
    </g>
    <defs>
        <clipPath id="clip0_647_611">
            <rect width="40.3934" height="39.7217" fill="white" />
        </clipPath>
    </defs>
</svg>