<svg width="41" height="39" viewBox="0 0 41 39" fill="none" xmlns="http://www.w3.org/2000/svg">
    <path fill-rule="evenodd" clip-rule="evenodd"
        d="M20.196 0.00670305C9.0439 0.00670305 0 8.89872 0 19.8667C0 28.6423 5.78623 36.0842 13.8111 38.7116C14.8212 38.8956 15.1925 38.2798 15.1925 37.7549C15.1925 37.2814 15.1723 35.717 15.1641 34.0588C9.54491 35.2603 8.36037 31.7145 8.36037 31.7145C7.44192 29.4185 6.11797 28.8079 6.11797 28.8079C4.28562 27.5741 6.25739 27.6012 6.25739 27.6012C8.28501 27.7406 9.35253 29.6465 9.35253 29.6465C11.1551 32.6829 14.0788 31.8039 15.2305 31.2973C15.4124 30.0138 15.9342 29.137 16.5127 28.6408C12.0265 28.1401 7.31071 26.4365 7.31071 18.8258C7.31071 16.6581 8.1009 14.8856 9.39129 13.4956C9.18111 12.9943 8.48931 10.9754 9.58587 8.24033C9.58587 8.24033 11.2818 7.70595 15.1418 10.2761C16.752 9.83695 18.4792 9.61557 20.1945 9.60824C21.9112 9.61557 23.6415 9.83621 25.2539 10.2761C29.1087 7.70744 30.8031 8.24033 30.8031 8.24033C31.9012 10.9762 31.2124 12.9964 31.0022 13.4957C32.297 14.8856 33.0805 16.6581 33.0805 18.8258C33.0805 26.454 28.3543 28.1312 23.8584 28.6231C24.583 29.2389 25.2301 30.4477 25.2301 32.2995C25.2301 34.9553 25.207 37.0958 25.207 37.749C25.207 38.2776 25.5708 38.8955 26.595 38.702C34.6154 36.0733 40.3942 28.6304 40.3942 19.8601C40.3942 8.8935 31.3518 0 20.1975 0L20.196 0.00664099L20.196 0.00670305Z"
        fill="#AFAFAF" />
</svg>