<svg width="41" height="40" viewBox="0 0 41 40" fill="none" xmlns="http://www.w3.org/2000/svg">
    <path fill-rule="evenodd" clip-rule="evenodd"
        d="M11.6582 0H28.736C35.1491 0 40.3934 5.09332 40.3934 11.3155V28.0638C40.3934 34.2875 35.1491 39.3793 28.736 39.3793H11.6582C5.24509 39.3793 0 34.2875 0 28.0638V11.3155C0 5.09332 5.24503 0 11.6582 0ZM20.0879 9.05773C26.3199 9.05773 31.3771 14.0308 31.3771 20.1592C31.3771 26.2883 26.3199 31.2607 20.0879 31.2607C13.8544 31.2607 8.79794 26.2883 8.79794 20.1592C8.79794 14.0308 13.8544 9.05773 20.0879 9.05773ZM20.0879 12.8073C24.2148 12.8073 27.5641 16.1003 27.5641 20.1592C27.5641 24.2181 24.2147 27.5118 20.0879 27.5118C15.9596 27.5118 12.611 24.2182 12.611 20.1592C12.611 16.1003 15.9596 12.8073 20.0879 12.8073ZM31.0096 7.51907C32.022 7.51907 32.8427 8.32617 32.8427 9.32095C32.8427 10.3165 32.022 11.1236 31.0096 11.1236C29.998 11.1236 29.1773 10.3165 29.1773 9.32095C29.1773 8.32617 29.998 7.51907 31.0096 7.51907ZM13.0537 3.21671H27.3419C32.707 3.21671 37.0948 7.51026 37.0948 12.7569V26.8778C37.0948 32.1243 32.7071 36.4172 27.3419 36.4172H13.0537C7.68864 36.4172 3.30014 32.1243 3.30014 26.8777V12.7567C3.30014 7.51026 7.68864 3.21671 13.0537 3.21671Z"
        fill="#AFAFAF" />
</svg>