<svg width="99" height="100" viewBox="0 0 99 100" fill="none" xmlns="http://www.w3.org/2000/svg">
<path d="M7.21261 0.166328C5.7867 0.61559 4.55611 1.70944 3.98965 3.05723C3.54039 4.11202 3.55992 20.559 3.98965 21.6137C4.47798 22.7662 5.1421 23.4889 6.25549 24.114L7.31028 24.7H13.9711C20.2607 24.7 20.6709 24.6804 21.0616 24.3288C21.589 23.8405 21.6085 22.7857 21.0811 22.2583C20.71 21.8872 20.4365 21.8677 14.5571 21.8677C11.1778 21.8677 8.18927 21.7895 7.93534 21.6919C7.66188 21.5747 7.25168 21.3012 7.03682 21.0668C6.62662 20.6371 6.62662 20.4808 6.62662 12.4332C6.62662 7.1983 6.70475 4.13156 6.82195 3.87763C7.34935 2.90098 6.91961 2.92051 25.1831 2.92051C37.3327 2.92051 42.3331 2.97912 42.6261 3.13538C43.759 3.72138 43.7395 3.46746 43.7395 12.3355V20.5003L43.1731 21.1254L42.6066 21.77L34.3832 21.8286L26.1793 21.8872L25.7691 22.3951C25.1245 23.2154 25.2807 24.0554 26.1793 24.5046C26.6285 24.739 28.0544 24.7976 34.4027 24.7976C39.325 24.7976 42.3527 24.7195 42.841 24.5828L43.6028 24.3679L46.0249 26.79L48.4665 29.2317L47.6657 30.345C45.9077 32.8843 45.0482 35.9511 45.1459 39.4084L45.2045 41.6157L36.5123 46.6552L27.82 51.6948L26.6481 50.5423C23.5814 47.5733 19.9287 46.0888 15.5923 46.0888C8.24787 46.0888 1.97773 51.1283 0.278347 58.3946C-0.0927822 60.0354 -0.0927822 63.5905 0.278347 65.2312C1.6066 70.8958 5.59137 75.1736 11.2169 76.9511C12.9749 77.498 16.4322 77.6934 18.4051 77.3418C23.2298 76.5019 27.5075 73.2984 29.7538 68.8253C30.9258 66.4618 31.3165 64.7234 31.3165 61.8129C31.3165 59.0588 30.9649 57.2812 29.9687 55.2303C29.4999 54.2536 29.4804 54.1755 29.8124 53.9411C30.4765 53.4528 46.103 44.487 46.1616 44.5456C46.2007 44.5847 46.4351 45.0144 46.6695 45.5028C47.9977 48.1788 50.4589 50.6791 53.0373 51.9878L54.6781 52.8277L54.6585 60.7386V68.6495L54.2288 68.0831C51.9825 65.0945 50.3417 63.5318 48.6228 62.7114C47.6657 62.2622 47.3141 62.2036 45.3022 62.2036C43.3684 62.2036 42.9387 62.2622 42.2745 62.6333C40.204 63.7467 39.3641 65.7977 40.1064 67.9073C40.2626 68.337 43.4856 73.2398 47.275 78.8263C51.084 84.4127 54.4827 89.6086 54.8343 90.3899C55.557 91.933 56.0258 94.1598 56.0454 96.035C56.0454 97.4609 56.2798 98.1446 56.9829 98.9064C58.0377 100.02 57.7252 100 70.8905 100C83.7824 100 83.7824 100 84.8176 99.0626C85.7552 98.2227 85.8333 97.793 85.931 92.9683L86.0287 88.378L87.0835 86.1512C88.4703 83.1627 88.861 81.307 88.861 77.4199C88.861 74.8025 88.8219 74.3923 88.4898 74.0016C87.982 73.3766 86.81 73.3766 86.3021 74.0016C85.9701 74.3923 85.931 74.822 85.931 77.3222C85.931 80.7015 85.638 82.3032 84.6418 84.3737C83.1573 87.4599 83.1378 87.5576 83.0206 92.48L82.9034 96.9726L71.0272 97.0312C61.6318 97.0702 59.1511 97.0312 59.0925 96.8359C59.0534 96.6991 58.9363 95.5662 58.8191 94.3356C58.5847 91.8744 58.0182 89.9211 57.0025 88.1045C56.5142 87.2255 50.791 78.7481 43.6028 68.2003C42.1573 66.0907 42.5675 65.1922 45.0092 65.075C46.1225 65.0164 46.6109 65.075 47.3141 65.3875C48.4665 65.8953 49.912 67.2627 51.2012 69.0207C53.0763 71.599 53.8772 72.2632 55.1468 72.2632C56.104 72.2632 56.9439 71.5014 57.315 70.2513C57.5689 69.4113 57.608 67.0868 57.608 54.1169C57.608 44.3698 57.6861 38.7052 57.8033 38.2364C58.3503 36.2831 61.163 35.8339 62.1397 37.5528C62.335 37.8848 62.4131 41.1469 62.4913 51.519L62.5889 65.075L63.0577 65.4461C63.6828 65.9539 64.4836 65.9149 64.9915 65.368C65.4212 64.9187 65.4212 64.8015 65.4408 58.5704C65.4408 51.5776 65.4994 51.1674 66.5737 50.4446C67.355 49.9173 68.1363 49.8782 69.0349 50.3079C70.285 50.8939 70.3045 51.0697 70.3045 59.3518V66.8134L70.7928 67.2822C71.3984 67.9073 72.2383 67.9268 72.8048 67.3213C73.2345 66.872 73.2345 66.7548 73.2345 61.1683C73.2345 55.0935 73.2931 54.6052 74.2111 53.8043C74.5237 53.5113 74.9143 53.4137 75.6956 53.4137C76.6137 53.4137 76.809 53.4918 77.3755 54.0583L78.0201 54.6833L78.1178 61.8325L78.2154 68.9816L78.6842 69.3527C79.3093 69.8606 79.9929 69.8215 80.5594 69.2355L81.0477 68.7667V63.61C81.0477 58.5704 81.0477 58.4337 81.497 57.7891C81.7314 57.4375 82.1611 57.0078 82.415 56.871C83.0596 56.539 84.466 56.6952 84.9934 57.1445C85.8529 57.9063 85.931 58.4923 85.931 63.649C85.931 66.3251 85.9896 68.6691 86.0482 68.8449C86.2631 69.3918 87.1811 69.7434 87.8452 69.509C88.8219 69.1769 88.9 68.7276 88.8219 62.9654C88.7633 58.1212 88.7242 57.6328 88.3531 56.832C87.2397 54.4099 84.2902 53.1207 81.829 53.9801C81.3407 54.1364 80.9305 54.2145 80.8915 54.1364C80.8719 54.0583 80.5789 53.5309 80.2469 52.9644C79.0358 50.8548 76.2621 49.8391 73.9181 50.679C73.4884 50.8353 73.1173 50.8939 73.0782 50.7962C73.0392 50.6986 72.7266 50.1321 72.3555 49.5266L71.6914 48.4132L72.336 47.4951C73.6837 45.6004 74.9925 42.2798 74.9925 40.7757V40.2288H79.0553H83.1182L83.3526 41.0687C83.9191 42.9439 85.9115 44.8191 88.0406 45.4246C91.9863 46.5771 96.264 43.7057 96.7719 39.5452C97.3774 34.7791 92.6504 30.7553 88.0406 32.103C85.9115 32.7086 83.9191 34.5837 83.3526 36.4589L83.1182 37.2988H79.0553H74.9925V36.7519C74.9925 35.3065 73.7228 32.0249 72.4336 30.1302C72.1211 29.6809 71.8672 29.2512 71.8672 29.1535C71.8672 29.0754 74.0939 26.7705 76.8286 24.0358L81.8095 19.0744L82.5127 19.6799C83.3722 20.4613 84.9348 21.2622 86.224 21.5942C87.3764 21.9067 89.779 21.9458 91.0096 21.6528C94.2716 20.9106 97.1821 18.0978 98.1392 14.7576C98.608 13.1559 98.4712 10.0891 97.8657 8.54603C96.9281 6.12392 94.6428 3.83857 92.2207 2.90098C90.5213 2.23685 87.435 2.15871 85.7357 2.72517C82.5322 3.77995 80.1492 6.29974 79.1921 9.6399C78.7038 11.3002 78.86 13.9372 79.5241 15.5584L80.0125 16.75L74.8167 21.9263L69.6209 27.1025L68.8395 26.5165C67.7261 25.6571 65.1087 24.4656 63.5461 24.0945C61.6123 23.6257 58.3307 23.6647 56.397 24.1921C54.7952 24.6023 52.4708 25.6766 51.416 26.4775C51.084 26.7314 50.7324 26.9463 50.6347 26.9463C50.537 26.9463 49.4822 25.9501 48.2517 24.7195L46.0444 22.5123L46.3569 21.5942C46.6304 20.8129 46.6695 19.4455 46.6695 12.2183V3.74091L46.1226 2.70564C45.517 1.53365 44.306 0.498389 43.1926 0.18586C42.3527 -0.0485375 7.99394 -0.0680688 7.21261 0.166328ZM91.7519 5.9286C93.0606 6.59272 94.1544 7.68659 94.8576 9.01484C95.3459 9.95243 95.4045 10.2259 95.4045 12.1011C95.4045 13.9372 95.346 14.2497 94.8772 15.1287C94.174 16.4765 92.8848 17.7266 91.5956 18.3322C90.072 19.0354 87.8257 19.133 86.2826 18.547C84.7981 18.0001 83.1768 16.5156 82.4736 15.0701C81.9853 14.0935 81.9267 13.7419 81.9267 12.1011C81.9267 10.4603 81.9853 10.1087 82.4736 9.13203C83.1573 7.74518 84.7981 6.22162 86.1849 5.67469C87.689 5.06916 90.3259 5.18634 91.7519 5.9286ZM63.2335 27.0635C65.6947 27.7081 68.1559 29.3293 69.6404 31.3022C72.7071 35.3455 73.0392 40.5999 70.4998 44.9168C69.4451 46.6943 69.0739 47.0068 67.6675 47.124C67.023 47.1826 66.2612 47.2998 65.9682 47.3584L65.4408 47.4951L65.3822 42.3579C65.3236 37.4942 65.304 37.1621 64.8938 36.4003C63.8781 34.5251 62.0029 33.4899 59.8152 33.6266C58.2526 33.7243 57.2173 34.1735 56.2212 35.1892C54.9124 36.5566 54.8148 37.0644 54.6976 43.7057L54.5804 49.6047L53.5061 48.9015C52.1973 48.0421 51.3379 47.2607 50.4589 46.0692C46.8062 41.1078 47.3141 34.4665 51.6895 30.1302C53.6623 28.1769 55.7133 27.2002 58.9753 26.6728C59.7371 26.5556 62.0811 26.7705 63.2335 27.0635ZM91.4979 35.1307C92.8652 35.7362 93.9396 37.3379 93.9396 38.7638C93.9396 39.6038 93.4903 40.6781 92.8457 41.4008C90.9705 43.4713 87.689 43.0807 86.3607 40.6195C85.6966 39.3694 85.8138 37.6504 86.6147 36.4785C87.728 34.9158 89.779 34.3493 91.4979 35.1307ZM18.6395 49.3117C22.2531 50.2298 25.5542 52.8667 27.1168 56.0897C28.9725 59.8987 28.953 63.6686 27.0973 67.5557C25.9839 69.8801 23.7962 72.0678 21.4718 73.2203C19.0497 74.3923 17.7214 74.6657 15.1235 74.5681C11.6271 74.4118 9.04873 73.2984 6.62662 70.8959C5.2007 69.4504 4.26312 68.0049 3.54039 66.0516C2.81767 64.1178 2.70047 60.6409 3.28646 58.4923C4.55611 53.902 8.11114 50.4251 12.6428 49.3117C14.1664 48.9601 17.2136 48.9601 18.6395 49.3117Z" fill="#DADADA"/>
<path d="M14.4791 54.5274C12.8774 54.7618 11.471 55.5236 10.2795 56.8323C8.85357 58.3559 8.32617 59.7036 8.32617 61.8132C8.32617 63.9228 8.85357 65.2706 10.2795 66.7942C13.8931 70.7008 20.1242 69.6851 22.4291 64.8408C22.8783 63.9033 22.9369 63.5126 22.9369 61.8132C22.9369 60.1138 22.8783 59.7232 22.4291 58.7856C20.9836 55.7189 17.8193 54.039 14.4791 54.5274ZM18.249 58.1605C20.0265 59.3911 20.593 61.8913 19.5577 63.8837C18.7764 65.3682 17.7216 66.0714 16.1199 66.1691C14.6354 66.2668 13.6587 65.9933 12.7602 65.1729C10.8069 63.4735 10.6897 60.6412 12.4672 58.727C13.8931 57.1839 16.491 56.9299 18.249 58.1605Z" fill="#DADADA"/>
<path d="M10.4157 7.49166C9.47816 7.92139 9.24376 8.95664 9.94695 9.71843C10.3376 10.1286 10.5134 10.1482 13.2676 10.1482H16.178L16.5687 9.6403C17.0961 8.95664 17.0765 8.52692 16.5101 7.86279C16.0413 7.31586 16.0022 7.31586 13.5215 7.25726C11.7245 7.23773 10.8455 7.29633 10.4157 7.49166Z" fill="#DADADA"/>
<path d="M22.5455 7.394C21.5884 7.78466 21.2954 9.01524 21.9595 9.7575C22.3111 10.1286 22.5455 10.1482 30.6518 10.1482C38.3478 10.1482 39.0119 10.1286 39.3049 9.79657C39.8714 9.17151 39.9104 8.48785 39.3831 7.88232L38.8947 7.31586L30.9057 7.2768C26.5303 7.25726 22.7604 7.31586 22.5455 7.394Z" fill="#DADADA"/>
<path d="M10.4354 14.465C9.47825 14.9924 9.26339 16.0277 9.94704 16.7504C10.3572 17.1801 10.3572 17.1801 18.6393 17.1801C26.6869 17.1801 26.9604 17.1606 27.3315 16.7895C27.8198 16.3012 27.8394 15.4026 27.351 14.8166L26.9799 14.3478L18.8932 14.3088C13.2677 14.2697 10.7088 14.3283 10.4354 14.465Z" fill="#DADADA"/>
<path d="M33.2503 14.4455C32.3713 14.7971 32.1369 16.1254 32.801 16.7895C33.1526 17.1411 33.4456 17.1801 36.0826 17.1801C39.247 17.1801 39.4618 17.1215 39.7353 15.9886C39.833 15.598 39.7353 15.344 39.3837 14.9143L38.8954 14.3478L36.2779 14.3088C34.852 14.2892 33.4847 14.3478 33.2503 14.4455Z" fill="#DADADA"/>
</svg>
