<svg width="48" height="48" viewBox="0 0 48 48" fill="none" xmlns="http://www.w3.org/2000/svg">
    <path fill-rule="evenodd" clip-rule="evenodd" d="M0 0L47.0175 -8.81055e-08L47.0175 47.0175L3.90481e-09 47.0175L0 0Z"
        fill="#AFAFAF" />
    <path fill-rule="evenodd" clip-rule="evenodd"
        d="M12 39.9568L15.5967 37.7797C16.2893 39.0117 16.9206 40.0525 18.4358 40.0525C19.886 40.0525 20.8043 39.4862 20.8043 37.2746L20.8043 22.2487L25.2237 22.2487L25.2237 37.3358C25.2237 41.9121 22.5415 43.9936 18.6271 43.9936C15.0916 43.9936 13.0408 42.1646 12 39.9568ZM27.6228 39.4824L31.2195 37.4009C32.1684 38.9467 33.3967 40.0831 35.5738 40.0831C37.4028 40.0831 38.5736 39.1686 38.5736 37.9059C38.5736 36.3907 37.376 35.855 35.3557 34.9712L34.2499 34.4967C31.0626 33.1384 28.9467 31.4356 28.9467 27.8389C28.9467 24.5254 31.472 22 35.4169 22C38.2254 22 40.2457 22.9795 41.6959 25.5355L38.2561 27.7433C37.4984 26.3849 36.6796 25.8493 35.4169 25.8493C34.1237 25.8493 33.301 26.6681 33.301 27.7433C33.301 29.0672 34.1198 29.6067 36.0138 30.4255L37.1196 30.9C40.8771 32.5108 42.9892 34.1523 42.9892 37.8447C42.9892 41.8202 39.8631 43.9974 35.6657 43.9974C31.5677 43.9974 28.9161 42.0383 27.6228 39.4824Z"
        fill="#161616" />
</svg>