<svg width="38" height="36" viewBox="0 0 38 36" fill="none" xmlns="http://www.w3.org/2000/svg">
    <path
        d="M13.5 7H5C3.34315 7 2 8.34315 2 10V27.5C2 29.1569 3.34315 30.5 5 30.5H22.5C24.1569 30.5 25.5 29.1569 25.5 27.5V19"
        stroke="#9ba1f3" stroke-width="3" stroke-linecap="round" />
    <path
        d="M12.9393 18.3113C12.3536 18.8971 12.3536 19.8468 12.9393 20.4326C13.5251 21.0184 14.4749 21.0184 15.0607 20.4326L12.9393 18.3113ZM32.872 1.99998C32.872 1.17156 32.2004 0.499985 31.372 0.499985H17.872C17.0435 0.499985 16.372 1.17156 16.372 1.99998C16.372 2.82841 17.0435 3.49998 17.872 3.49998H29.872V15.5C29.872 16.3284 30.5435 17 31.372 17C32.2004 17 32.872 16.3284 32.872 15.5V1.99998ZM15.0607 20.4326L32.4326 3.06064L30.3113 0.939324L12.9393 18.3113L15.0607 20.4326Z"
        fill="#9ba1f3" />
</svg>