<svg width="214" height="214" viewBox="0 0 214 214" fill="none" xmlns="http://www.w3.org/2000/svg">
    <rect width="214" height="214" rx="8" fill="#141414" />
    <path
        d="M40.2632 122.156L48.5483 123.043H52.0991C56.6691 123.043 59.9733 122.106 62.0117 120.232C64.083 118.358 65.1187 115.202 65.1187 110.764V70.9653C65.1187 69.6831 65.5625 68.5817 66.4502 67.6611C67.3708 66.7406 68.4722 66.2803 69.7544 66.2803H78.9272C80.2752 66.2803 81.4095 66.7406 82.3301 67.6611C83.2507 68.5817 83.7109 69.6831 83.7109 70.9653V110.616C83.7109 119.032 80.9163 125.542 75.3271 130.145C69.738 134.715 62.1597 137 52.5923 137H38.6357C37.3535 137 36.2521 136.556 35.3315 135.668C34.4438 134.748 34 133.646 34 132.364V126.792C34 125.509 34.4274 124.424 35.2822 123.537C36.1699 122.616 37.2878 122.156 38.6357 122.156H40.2632Z"
        fill="white" />
    <path
        d="M180.156 84.8125C180.281 84.5625 180.344 84.2917 180.344 84C180.344 83.6875 180.156 83.3125 179.781 82.875C179.385 82.4167 178.833 82.1875 178.125 82.1875H171.281C169.656 82.1875 168.417 83.1771 167.562 85.1562L155.469 112.094L143.375 85.1562C142.521 83.1979 141.281 82.2083 139.656 82.1875H132.812C132.083 82.1875 131.531 82.4167 131.156 82.875C130.781 83.3125 130.594 83.6875 130.594 84C130.594 84.2917 130.646 84.5625 130.75 84.8125L148.75 123.812C149.729 125.938 151.219 127 153.219 127H157.719C159.719 127 161.208 125.938 162.188 123.812L180.156 84.8125Z"
        fill="white" />
    <path
        d="M138.156 125.188C138.281 125.438 138.344 125.708 138.344 126C138.344 126.312 138.156 126.688 137.781 127.125C137.385 127.583 136.833 127.812 136.125 127.812H129.281C127.656 127.812 126.417 126.823 125.563 124.844L113.469 97.9062L101.375 124.844C100.521 126.802 99.2812 127.792 97.6562 127.812L90.8125 127.812C90.0833 127.812 89.5312 127.583 89.1562 127.125C88.7812 126.687 88.5938 126.312 88.5938 126C88.5938 125.708 88.6458 125.437 88.75 125.187L106.75 86.1875C107.729 84.0625 109.219 83 111.219 83H115.719C117.719 83 119.208 84.0625 120.188 86.1875L138.156 125.188Z"
        fill="white" />
    <rect x="113" y="111" width="13" height="9" rx="1" fill="white" />
</svg>