<svg width="45" height="50" viewBox="0 0 45 50" fill="none" xmlns="http://www.w3.org/2000/svg">
    <path
        d="M20.368 0.528839C21.5915 -0.17469 23.1851 -0.177868 24.4075 0.528839C30.5574 4.01983 36.7092 7.50534 42.8581 10.9984C44.0146 11.6529 44.7882 12.9459 44.7764 14.2846L44.7764 35.2878C44.785 36.6819 43.935 38.0058 42.7149 38.6455C36.5852 42.1172 30.4586 45.5932 24.33 49.0649C23.0812 49.7822 21.4557 49.727 20.2459 48.9509C18.4082 47.8807 16.5674 46.8157 14.7295 45.7466C14.354 45.5217 13.9306 45.3427 13.6654 44.9769C13.8999 44.6594 14.319 44.6199 14.6596 44.4813C15.4267 44.2363 16.1312 43.8429 16.8359 43.4612C17.0141 43.3387 17.2317 43.3857 17.4025 43.4953C18.9739 44.4004 20.5315 45.3319 22.1082 46.2284C22.4445 46.4235 22.7851 46.1645 23.0726 46.0035C29.0877 42.5882 35.1102 39.1859 41.1243 35.7695C41.3471 35.6619 41.4703 35.4242 41.4522 35.179C41.4564 28.2505 41.4533 21.3208 41.4543 14.3923C41.4798 14.1141 41.3195 13.8583 41.0691 13.7444C34.9607 10.2886 28.8554 6.82741 22.748 3.37067C22.6422 3.29759 22.5169 3.25838 22.3885 3.25819C22.26 3.258 22.1346 3.29684 22.0286 3.36961C15.9212 6.82741 9.81697 10.2917 3.7096 13.7474C3.46005 13.8615 3.29258 14.113 3.32228 14.3923C3.32333 21.3208 3.32228 28.2505 3.32228 35.1801C3.31169 35.2997 3.33784 35.4197 3.39723 35.524C3.45661 35.6283 3.54637 35.7117 3.65442 35.7632C5.2842 36.6916 6.91609 37.6136 8.54693 38.5388C9.46568 39.0356 10.5937 39.3308 11.606 38.9502C12.4992 38.6283 13.1254 37.7126 13.1083 36.7598C13.1168 29.8717 13.1041 22.9826 13.1147 16.0956C13.0924 15.7899 13.3811 15.5372 13.677 15.566C14.4601 15.5607 15.2442 15.5554 16.0273 15.5681C16.3542 15.5607 16.5791 15.89 16.5387 16.198C16.5356 23.1297 16.5472 30.0615 16.5335 36.9932C16.5356 38.8405 15.7801 40.8507 14.0791 41.7546C11.9836 42.8451 9.39363 42.6138 7.32345 41.5681C5.53129 40.6695 3.82102 39.609 2.06066 38.6463C0.837361 38.0102 -0.00845983 36.681 0.000151259 35.2879L0.000151258 14.2846C-0.0126775 12.9182 0.791669 11.6017 1.98422 10.9568C8.11286 7.48221 14.2404 4.005 20.368 0.528839Z"
        fill="#AFAFAF" />
    <path
        d="M25.7148 15.0778C28.3877 14.905 31.2492 14.9754 33.6545 16.2982C35.5168 17.312 36.5493 19.4395 36.5821 21.518C36.5301 21.7983 36.2384 21.953 35.972 21.9337C35.1965 21.9327 34.4208 21.9443 33.6452 21.9284C33.3162 21.9411 33.125 21.6364 33.0837 21.3442C32.8609 20.3498 32.3211 19.3648 31.3893 18.8852C29.959 18.1657 28.3005 18.2019 26.7409 18.2169C25.6023 18.2777 24.3779 18.3767 23.4133 19.0493C22.6728 19.5588 22.4478 20.5874 22.7121 21.4157C22.9613 22.0105 23.6448 22.2024 24.204 22.3793C27.4252 23.2257 30.8387 23.1415 33.9985 24.2553C35.3066 24.7093 36.5864 25.5921 37.0341 26.9681C37.6199 28.8122 37.3631 31.0166 36.057 32.4971C34.9979 33.7154 33.4553 34.3785 31.9167 34.7386C29.8699 35.1971 27.7457 35.2088 25.6671 35.0052C23.7126 34.7814 21.6786 34.2655 20.1697 32.9277C18.8795 31.8022 18.2493 30.0486 18.3119 28.356C18.3268 28.0702 18.6101 27.8709 18.8827 27.8944C19.6636 27.888 20.4446 27.8859 21.2256 27.8954C21.5375 27.873 21.7688 28.1438 21.7848 28.4392C21.9289 29.3867 22.2833 30.3812 23.1058 30.9429C24.693 31.9717 26.6847 31.9012 28.5021 31.93C30.0078 31.8629 31.6981 31.8426 32.9268 30.8428C33.5751 30.2726 33.7672 29.3186 33.592 28.4978C33.4022 27.8049 32.6806 27.482 32.061 27.2708C28.881 26.2603 25.4294 26.627 22.2802 25.4842C21.0017 25.0303 19.7654 24.1721 19.2742 22.8526C18.5888 20.9851 18.9029 18.6752 20.3458 17.2447C21.7528 15.8218 23.7838 15.2739 25.7148 15.0778Z"
        fill="#AFAFAF" />
</svg>