<svg width="54" height="48" viewBox="0 0 54 48" fill="none" xmlns="http://www.w3.org/2000/svg">
    <path fill-rule="evenodd" clip-rule="evenodd"
        d="M53.3333 23.5152C53.3333 20.0178 48.9106 16.7051 42.1267 14.6471C43.6936 7.8026 42.9948 2.35883 39.9306 0.614412C39.2231 0.206236 38.3984 0.0128897 37.4957 0.0128897L37.4957 2.41468C37.9948 2.41468 38.3984 2.5135 38.737 2.69396C40.217 3.53179 40.855 6.72845 40.3559 10.8403C40.2344 11.85 40.0391 12.9155 39.8003 14.0026C37.6693 13.487 35.3429 13.0874 32.8993 12.8296C31.4323 10.8403 29.9089 9.03142 28.3767 7.45028C31.9184 4.18488 35.2431 2.40179 37.5043 2.40179L37.5043 -7.02788e-08C34.5139 -6.46751e-08 30.6033 2.10962 26.645 5.77032C22.6866 2.13111 18.776 0.0429658 15.7856 0.0429658L15.7856 2.44476C18.0339 2.44476 21.3715 4.21925 24.9175 7.45887C23.3941 9.04002 21.875 10.836 20.4297 12.8296C17.9731 13.0874 15.6467 13.487 13.5156 14.0112C13.2639 12.937 13.0816 11.893 12.9514 10.8918C12.4392 6.78001 13.0729 3.58335 14.5399 2.73263C14.8655 2.53928 15.2908 2.45335 15.7899 2.45335L15.7899 0.0558556C14.8785 0.0558556 14.0495 0.249202 13.3333 0.657378C10.2778 2.40179 9.59201 7.83697 11.1719 14.66C4.40104 16.7223 1.66319e-09 20.0264 1.95294e-09 23.5152C2.2434e-09 27.0126 4.42274 30.3253 11.2066 32.3834C9.63976 39.2278 10.3385 44.6716 13.4028 46.416C14.1102 46.8242 14.9349 47.0175 15.8507 47.0175C18.8411 47.0175 22.7517 44.9079 26.7101 41.2472C30.6684 44.8864 34.579 46.9746 37.5694 46.9746C38.4809 46.9746 39.3099 46.7812 40.026 46.3731C43.0816 44.6286 43.7674 39.1935 42.1875 32.3705C48.9323 30.3167 53.3333 26.9997 53.3333 23.5152ZM31.6233 23.5152C31.6233 20.7998 29.401 18.5956 26.6536 18.5956C23.9106 18.5956 21.684 20.7955 21.684 23.5152C21.684 26.235 23.9063 28.4348 26.6536 28.4348C29.401 28.4305 31.6233 26.2307 31.6233 23.5152ZM39.1797 16.3356C38.776 17.7234 38.2769 19.1542 37.7127 20.5849C37.2656 19.7256 36.8012 18.862 36.2891 18.0027C35.7899 17.1434 35.2561 16.3012 34.7222 15.4849C36.2674 15.7126 37.7561 15.9919 39.1797 16.3356ZM34.2014 27.7989C33.355 29.2512 32.4826 30.6304 31.5799 31.9107C29.9609 32.0525 28.3203 32.1256 26.6667 32.1256C25.026 32.1256 23.3854 32.0482 21.7752 31.9193C20.8724 30.639 19.9913 29.2726 19.145 27.829C18.3203 26.4197 17.5694 24.9889 16.8837 23.5453C17.5564 22.1016 18.3203 20.6623 19.1319 19.253C19.9783 17.8008 20.8507 16.4216 21.7535 15.1412C23.3724 14.9994 25.013 14.9263 26.6667 14.9263C28.3073 14.9263 29.9479 15.0037 31.5582 15.1326C32.4609 16.413 33.342 17.7793 34.1884 19.2229C35.013 20.6322 35.7639 22.063 36.4497 23.5066C35.7639 24.946 35.0174 26.3853 34.2014 27.7989ZM37.7127 26.3982C38.2986 27.8419 38.7977 29.2812 39.2144 30.6819C37.7908 31.0257 36.2891 31.3178 34.7352 31.5412C35.2691 30.712 35.7986 29.8613 36.3021 28.9891C36.7969 28.1298 37.2656 27.2575 37.7127 26.3982ZM26.6884 37.8787C25.6771 36.8475 24.6658 35.696 23.6675 34.4371C24.6441 34.4801 25.6467 34.5145 26.658 34.5145C27.678 34.5145 28.6892 34.493 29.6788 34.4371C28.6979 35.696 27.6866 36.8475 26.6884 37.8787ZM18.6024 31.5412C17.0573 31.3135 15.5686 31.0342 14.145 30.6905C14.5486 29.3027 15.0477 27.872 15.612 26.4412C16.059 27.3005 16.5234 28.1641 17.0356 29.0234C17.5477 29.8871 18.0686 30.7249 18.6024 31.5412ZM26.6319 9.14743C27.6432 10.1786 28.6545 11.3301 29.6528 12.589C28.6762 12.546 27.6736 12.5117 26.6623 12.5117C25.6424 12.5117 24.6311 12.5331 23.6415 12.589C24.6224 11.3301 25.6337 10.1786 26.6319 9.14743ZM18.5894 15.4849C18.0556 16.3141 17.526 17.1649 17.0226 18.0371C16.5234 18.8964 16.0547 19.76 15.6076 20.6193C15.0217 19.1757 14.5226 17.7363 14.1059 16.3356C15.5339 16.0005 17.0356 15.7126 18.5894 15.4849ZM8.75 28.959C4.90017 27.3349 2.41319 25.2038 2.41319 23.5152C2.41319 21.8267 4.90451 19.6827 8.75 18.0714C9.68316 17.6719 10.7075 17.3195 11.7622 16.9844C12.3828 19.094 13.1988 21.2896 14.2101 23.5367C13.2118 25.7752 12.4045 27.9579 11.7969 30.0589C10.7205 29.7238 9.69618 29.3586 8.75 28.959ZM14.6007 44.3365C13.1207 43.4986 12.4826 40.302 12.9818 36.1901C13.1033 35.1804 13.2986 34.1149 13.5373 33.0279C15.6684 33.5434 17.9948 33.943 20.4384 34.2008C21.9054 36.1901 23.4288 37.999 24.9609 39.5802C21.4149 42.8413 18.0903 44.6286 15.829 44.6286C15.3385 44.6158 14.9262 44.5212 14.6007 44.3365ZM40.3863 36.1386C40.8984 40.2504 40.2648 43.4471 38.7977 44.2978C38.4722 44.4911 38.0469 44.5771 37.5477 44.5771C35.2995 44.5771 31.9618 42.8026 28.4158 39.563C29.9392 37.9818 31.4583 36.1858 32.9036 34.1922C35.3602 33.9344 37.6866 33.5349 39.8177 33.0064C40.0694 34.0934 40.2648 35.1375 40.3863 36.1386ZM44.5703 28.959C43.6372 29.3586 42.6128 29.7109 41.5582 30.046C40.9375 27.9364 40.1215 25.7408 39.1102 23.4937C40.1085 21.2552 40.9158 19.0725 41.5234 16.9715C42.5998 17.3066 43.6198 17.6719 44.579 18.0671C48.4288 19.6913 50.9158 21.8224 50.9158 23.5109C50.9071 25.2038 48.4201 27.3435 44.5703 28.959Z"
        fill="#AFAFAF" />
</svg>