<svg width="90" height="91" viewBox="0 0 90 91" fill="none" xmlns="http://www.w3.org/2000/svg">
<path d="M15.7598 1.74468C14.5601 2.94434 14.0148 5.56177 14.0148 10.4695V17.4493L10.1977 15.9224C6.59875 14.3956 6.38063 14.3956 4.41755 16.904C3.2179 18.3217 1.69106 21.0482 0.927646 22.9022C-0.38107 26.065 -0.27201 26.5012 2.45448 29.3368C6.27157 33.2629 6.27157 38.4978 2.56354 41.0061C-0.926368 43.2964 -0.817308 44.9323 2.6726 50.9306C5.61721 55.9473 6.27157 56.1654 12.2698 53.8752C13.7967 53.3299 14.0148 55.1839 14.0148 70.5613C14.0148 82.5579 14.451 88.338 15.3235 89.2105C17.1775 91.0645 85.0126 91.0645 86.8666 89.2105C87.6301 88.4471 88.1754 85.0662 88.1754 81.5763C88.1754 76.4505 87.7391 75.1418 85.9942 74.1603C83.0495 72.6334 83.2677 70.9975 87.1938 61.9456C90.3565 54.6386 90.4656 53.8752 89.375 47.7678C88.2844 41.3333 86.7576 38.1706 84.6854 38.1706C81.8499 38.1706 79.0143 33.481 78.1419 27.1556C77.0513 19.0852 76.7241 18.5399 73.3432 18.5399C70.8349 18.5399 70.7258 18.3217 70.7258 10.5785C70.7258 5.88894 70.1805 2.07186 69.4171 1.30844C68.4356 0.326904 61.0195 -0.000274658 42.8065 -0.000274658C21.2127 -0.000274658 17.1775 0.21785 15.7598 1.74468ZM69.199 14.1775C69.308 20.5029 69.6352 29.3368 70.1805 33.9173C71.053 42.7511 70.0714 47.5497 66.4725 52.2393L64.4004 54.8567L62.6554 48.7494C60.9104 42.7511 58.5111 40.1337 55.6756 41.1152C53.2763 41.9877 51.0951 39.1521 51.0951 35.1169C51.0951 32.1723 51.8585 30.5364 54.0397 28.7915L57.0934 26.2831L54.4759 21.2663C51.4223 15.3771 50.2226 14.6137 45.9693 16.0315C42.0431 17.3402 35.8267 13.9594 35.8267 10.5785C35.8267 6.10706 34.409 5.34365 27.5382 5.67083C21.1037 5.99801 21.1037 5.99801 20.7765 9.48792C20.5584 11.6691 19.5768 13.5231 18.2681 14.1775C16.3051 15.2681 16.196 14.9409 16.196 8.7245V2.18092L42.6975 2.39904L69.0899 2.72622L69.199 14.1775ZM34.2999 10.6876C35.9358 15.8134 41.4978 19.0852 45.9693 17.4493C49.0229 16.4677 49.6773 16.5768 51.3132 18.758C54.694 23.0113 55.0212 26.2831 52.4038 28.4643C49.4592 30.7545 49.0229 39.2612 51.6404 41.4424C52.5129 42.2058 53.0582 43.1873 52.731 43.6236C51.9676 44.9323 55.2393 58.6738 57.3115 62.4909C58.184 64.3449 60.4742 67.1805 62.4373 68.9254L65.8181 72.1972L63.4188 73.8331C62.001 74.8146 60.9104 76.6686 60.9104 78.0864V80.7039H38.5532H16.196V68.162V55.6201L19.2497 56.2745C21.758 56.8198 21.5399 56.4926 17.8319 54.3114C14.2329 52.1302 12.9242 51.803 10.3068 52.6755C7.47122 53.6571 6.81687 53.4389 4.52661 50.8215C1.47294 47.2225 1.25482 43.5145 4.19943 41.6605C7.58028 39.5884 7.2531 30.9727 3.65414 28.1371L0.927646 26.065L3.10884 21.8116C5.83533 16.4677 6.38063 16.1405 10.3068 17.6674C12.9242 18.6489 14.1239 18.4308 17.6138 16.3587C19.904 15.05 21.649 13.0869 21.649 11.9963C21.649 7.41578 22.8486 6.43424 28.0835 6.76142C32.664 7.0886 33.2093 7.41578 34.2999 10.6876ZM76.3969 24.5381C76.8332 26.9375 77.1603 33.9173 77.1603 40.0246C77.2694 46.7863 77.7056 51.2578 78.36 51.2578C79.0143 51.2578 79.4506 47.8769 79.4506 43.4055C79.4506 33.6992 81.1955 34.5716 83.0495 45.1504C83.7039 49.0766 84.6854 52.3484 85.2307 52.3484C85.776 52.3484 85.9942 51.2578 85.667 49.84C85.3398 48.5313 84.6854 45.4776 84.3583 43.0783C83.5948 39.0431 83.7039 38.825 85.3398 40.4608C86.4304 41.4424 87.4119 44.7142 87.7391 49.1856C88.3935 55.0748 88.0663 57.0379 86.1032 60.855C84.7945 63.3634 83.3767 67.1805 82.9405 69.3617L82.1771 73.2878H74.5429C67.8903 73.2878 66.9087 73.0697 66.1453 70.9975C65.7091 69.6888 64.6185 68.3801 63.6369 68.0529C59.1655 66.308 52.2947 46.3501 55.1303 43.5145C57.3115 41.3333 59.6017 43.2964 60.9104 48.2041C61.6739 50.8215 62.9826 53.7661 63.8551 54.7477C65.9272 57.0379 68.7627 57.3651 67.8903 55.1839C67.5631 54.4205 68.4356 51.9121 69.7443 49.7309C71.9255 45.9138 72.0345 44.7142 71.4892 33.372C71.053 26.6103 71.053 20.7211 71.4892 20.2848C73.3432 18.4308 75.6335 20.5029 76.3969 24.5381ZM85.9942 81.7944V88.338H74.5429H63.0916V81.7944V75.2509H74.5429H85.9942V81.7944ZM60.9104 85.0662V88.338H38.5532H16.196V85.0662V81.7944H38.5532H60.9104V85.0662Z" fill="#DADADA"/>
<path d="M29.1742 27.919C24.1574 32.9358 24.1574 32.9358 21.2128 31.0817C18.9226 29.5549 18.0501 29.4459 16.7414 30.5365C15.8689 31.2999 15.1055 32.4995 15.1055 33.2629C15.1055 35.7713 20.6675 41.4424 23.1759 41.4424C26.5567 41.4424 40.5164 27.2647 39.5348 24.7563C38.3352 21.4845 34.3 22.6842 29.1742 27.919ZM38.008 25.9559C38.008 28.3553 26.0114 40.3518 23.6121 40.3518C21.54 40.3518 15.8689 34.0264 16.8504 32.6086C17.7229 31.0817 19.5769 31.4089 21.8672 33.4811C23.8302 35.226 24.1574 35.0079 29.6104 29.664C35.4996 23.7748 38.008 22.6842 38.008 25.9559Z" fill="#DADADA"/>
<path d="M33.4275 41.9877C29.6104 46.5682 28.847 47.0044 26.4477 46.4591C24.3756 45.9138 23.5031 46.4591 22.0853 49.2947C20.4494 52.4574 20.4494 52.7846 22.0853 53.9842C24.3756 55.7292 24.3756 58.7829 22.0853 60.5278C20.4494 61.7275 20.4494 62.0546 22.0853 65.2174C23.5031 68.0529 24.3756 68.5982 26.4477 68.0529C28.847 67.5076 32.555 69.7979 32.555 71.9791C32.555 73.2878 36.2631 73.9421 38.8805 72.9606C40.1892 72.4153 41.2798 71.3247 41.2798 70.4522C41.2798 68.5982 44.5516 67.2895 47.06 68.271C48.2596 68.7073 49.3502 67.8348 50.5499 65.4355C52.1858 62.2728 52.1858 61.8365 50.6589 60.0916C49.6774 59.001 48.914 57.8013 48.914 57.256C48.914 56.7107 49.6774 55.5111 50.6589 54.4205C52.1858 52.6755 52.1858 52.2393 50.5499 49.0765C49.2412 46.6772 48.2596 45.9138 46.8419 46.3501C44.2244 47.1135 41.2798 45.9138 41.2798 44.0598C41.2798 42.642 38.008 40.3518 35.9359 40.3518C35.2815 40.3518 34.1909 41.1152 33.4275 41.9877ZM39.0986 44.0598C39.0986 46.241 43.8972 49.0765 46.5147 48.3131C49.1321 47.6588 50.9861 51.803 49.0231 53.7661C48.3687 54.4205 47.8234 55.9473 47.8234 57.256C47.8234 58.5647 48.3687 60.0916 49.0231 60.7459C50.9861 62.709 49.1321 66.8533 46.5147 66.1989C43.8972 65.4355 39.0986 68.271 39.0986 70.4522C39.0986 71.3247 38.008 71.9791 36.3721 71.9791C34.7362 71.9791 33.6456 71.3247 33.6456 70.3432C33.6456 68.3801 29.3923 65.9808 26.3386 66.417C24.7028 66.5261 23.8303 65.8717 23.285 64.2358C22.7397 62.709 22.9578 61.5093 23.7212 61.2912C25.248 60.7459 25.248 53.7661 23.7212 53.2208C22.9578 53.0027 22.7397 51.803 23.285 50.2762C23.8303 48.6403 24.7028 47.9859 26.3386 48.095C29.3923 48.5312 33.6456 46.1319 33.6456 44.1689C33.6456 43.1873 34.7362 42.533 36.3721 42.533C38.008 42.533 39.0986 43.1873 39.0986 44.0598Z" fill="#DADADA"/>
<path d="M33.3183 49.84C32.3367 50.0581 30.7008 51.803 29.7193 53.657C26.2294 60.5278 33.2092 67.3986 40.189 63.7996C45.3148 61.1822 46.0782 55.9473 41.8249 51.803C39.3165 49.1856 37.4625 48.7494 33.3183 49.84ZM41.0615 52.6755C42.9155 54.0933 42.6974 59.4372 40.6252 61.5093C37.0263 65.2174 30.3736 62.4909 30.3736 57.3651C30.3736 51.4759 36.1538 48.9675 41.0615 52.6755Z" fill="#DADADA"/>
</svg>
